<?xml version="1.0" encoding="UTF-8"?>
<svg width="450px" height="135px" viewBox="0 0 450 135" version="1.1" xmlns="http://www.w3.org/2000/svg" xmlns:xlink="http://www.w3.org/1999/xlink">
    <!-- Generator: Sketch 41.2 (35397) - http://www.bohemiancoding.com/sketch -->
    <title>navigation-bar</title>
    <desc>Created with Sketch.</desc>
    <defs>
        <linearGradient x1="-0.0209214182%" y1="50.0025743%" x2="100.013529%" y2="50.0025743%" id="linearGradient-1">
            <stop stop-color="#FA0E76" offset="0%"></stop>
            <stop stop-color="#7E0B9B" offset="100%"></stop>
        </linearGradient>
        <linearGradient x1="0.307557401%" y1="50.0115861%" x2="100.320013%" y2="50.0115861%" id="linearGradient-2">
            <stop stop-color="#FF016D" offset="0%"></stop>
            <stop stop-color="#FB0278" offset="100%"></stop>
        </linearGradient>
        <linearGradient x1="0.539788235%" y1="50.004168%" x2="100.900416%" y2="50.004168%" id="linearGradient-3">
            <stop stop-color="#A700A6" offset="0%"></stop>
            <stop stop-color="#A000A8" offset="100%"></stop>
        </linearGradient>
        <linearGradient x1="0.0316606761%" y1="49.9589215%" x2="100.0338%" y2="49.9589215%" id="linearGradient-4">
            <stop stop-color="#F8027C" offset="0%"></stop>
            <stop stop-color="#DC0191" offset="100%"></stop>
        </linearGradient>
        <linearGradient x1="0.0246290981%" y1="49.9416866%" x2="99.9821793%" y2="49.9416866%" id="linearGradient-5">
            <stop stop-color="#F30283" offset="0%"></stop>
            <stop stop-color="#DD0191" offset="100%"></stop>
        </linearGradient>
        <linearGradient x1="-0.0202179433%" y1="49.9173119%" x2="100.10537%" y2="49.9173119%" id="linearGradient-6">
            <stop stop-color="#B301A2" offset="0%"></stop>
            <stop stop-color="#8000B0" offset="100%"></stop>
        </linearGradient>
        <linearGradient x1="-0.258596491%" y1="49.9934352%" x2="99.8514035%" y2="49.9934352%" id="linearGradient-7">
            <stop stop-color="#FD0281" offset="0%"></stop>
            <stop stop-color="#EE018A" offset="100%"></stop>
        </linearGradient>
        <linearGradient x1="-0.1474137%" y1="50.0017668%" x2="99.8624071%" y2="50.0017668%" id="linearGradient-8">
            <stop stop-color="#DE01A7" offset="0%"></stop>
            <stop stop-color="#8000BE" offset="100%"></stop>
        </linearGradient>
        <linearGradient x1="0.240381656%" y1="49.9707288%" x2="100.232687%" y2="49.9707288%" id="linearGradient-9">
            <stop stop-color="#D00198" offset="0%"></stop>
            <stop stop-color="#AB01A5" offset="100%"></stop>
        </linearGradient>
        <linearGradient x1="-0.394465882%" y1="50.1627661%" x2="99.6084518%" y2="50.1627661%" id="linearGradient-10">
            <stop stop-color="#FB0277" offset="0%"></stop>
            <stop stop-color="#F9027A" offset="100%"></stop>
        </linearGradient>
        <linearGradient x1="0.276475083%" y1="49.9085032%" x2="100.419734%" y2="49.9085032%" id="linearGradient-11">
            <stop stop-color="#A100A7" offset="0%"></stop>
            <stop stop-color="#8100AF" offset="100%"></stop>
        </linearGradient>
        <linearGradient x1="-0.102636327%" y1="49.8750759%" x2="99.8960092%" y2="49.8750759%" id="linearGradient-12">
            <stop stop-color="#FC0282" offset="0%"></stop>
            <stop stop-color="#EC0288" offset="18.4%"></stop>
            <stop stop-color="#C30298" offset="54.23%"></stop>
            <stop stop-color="#8602AF" offset="100%"></stop>
        </linearGradient>
        <linearGradient x1="0.00783488828%" y1="50.0120263%" x2="100.021338%" y2="50.0120263%" id="linearGradient-13">
            <stop stop-color="#FE036F" offset="0%"></stop>
            <stop stop-color="#F40281" offset="100%"></stop>
        </linearGradient>
        <linearGradient x1="0.185498648%" y1="50.0256448%" x2="100.183908%" y2="50.0256448%" id="linearGradient-14">
            <stop stop-color="#FF0070" offset="0%"></stop>
            <stop stop-color="#FA0088" offset="100%"></stop>
        </linearGradient>
        <linearGradient x1="-0.0256146242%" y1="49.9745021%" x2="99.9706547%" y2="49.9745021%" id="linearGradient-15">
            <stop stop-color="#D000AD" offset="0%"></stop>
            <stop stop-color="#A600B8" offset="100%"></stop>
        </linearGradient>
        <linearGradient x1="-0.167232315%" y1="49.9055147%" x2="99.8327677%" y2="49.9055147%" id="linearGradient-16">
            <stop stop-color="#F90089" offset="0%"></stop>
            <stop stop-color="#EE0099" offset="100%"></stop>
        </linearGradient>
        <linearGradient x1="-0.2882%" y1="49.9804804%" x2="99.7003246%" y2="49.9804804%" id="linearGradient-17">
            <stop stop-color="#FE008A" offset="0%"></stop>
            <stop stop-color="#E400A2" offset="100%"></stop>
        </linearGradient>
        <linearGradient x1="0.0677564587%" y1="49.9285451%" x2="100.067756%" y2="49.9285451%" id="linearGradient-18">
            <stop stop-color="#FD008C" offset="0%"></stop>
            <stop stop-color="#E001A4" offset="100%"></stop>
        </linearGradient>
        <linearGradient x1="0.00276113861%" y1="50.0204816%" x2="100.450042%" y2="50.0204816%" id="linearGradient-19">
            <stop stop-color="#F001AC" offset="0%"></stop>
            <stop stop-color="#E100B5" offset="100%"></stop>
        </linearGradient>
        <linearGradient x1="-0.321955934%" y1="49.9739467%" x2="99.6683804%" y2="49.9739467%" id="linearGradient-20">
            <stop stop-color="#FB0093" offset="0%"></stop>
            <stop stop-color="#F001AB" offset="100%"></stop>
        </linearGradient>
    </defs>
    <g id="Page-1" stroke="none" stroke-width="1" fill="none" fill-rule="evenodd">
        <g id="navigation-bar">
            <g id="Normal" transform="translate(10.000000, 97.000000)">
                <path d="M377.33601,12.3360096 L381.672019,8 L383.086233,9.41421356 L378.750223,13.7502232 L381,16 L375,16 L375,10 L377.33601,12.3360096 Z M367.699747,18.6997475 L370,21 L370,15 L364,15 L366.285534,17.2855339 L362,21.5710678 L363.414214,22.9852814 L367.699747,18.6997475 Z M358,4 L387,4 L387,27 L358,27 L358,4 Z M360,25 L385,25 L385,6 L360,6 L360,25 Z" id="fullscreen-close" fill="#E7E7E7"></path>
                <path d="M320.71394,10.2971195 L323.011059,8 L317,8 L317,14.0110593 L319.29712,11.7139398 L323.58318,16 L325,14.5831797 L320.71394,10.2971195 Z M334.331683,20.7175644 L330.017759,16.4036404 L331.425908,14.9954918 L335.735309,19.3048931 L337.980873,17.0448581 L337.980873,23.0191268 L332.044858,23.0191268 L334.331683,20.7175644 Z M313,4 L342,4 L342,27 L313,27 L313,4 Z M315,25 L340,25 L340,6 L315,6 L315,25 Z" id="fullscreen" fill="#E7E7E7"></path>
                <path d="M295.102,14.55 L294.481,14.497 C294.602,14.695 294.663,14.892 294.663,15.09 C294.663,15.669 294.522,16.07 294.241,16.29 C293.958,16.511 293.518,16.621 292.915,16.621 C292.788,16.621 292.675,16.61 292.577,16.586 C292.52,16.738 292.493,16.861 292.493,16.956 C292.493,17.052 292.54,17.117 292.634,17.153 C292.728,17.187 292.948,17.208 293.296,17.213 C293.991,17.219 294.466,17.317 294.722,17.505 C294.976,17.694 295.103,18.035 295.103,18.532 C295.103,19.029 294.919,19.395 294.556,19.633 C294.191,19.87 293.699,19.989 293.077,19.989 C292.455,19.989 291.979,19.903 291.645,19.729 C291.311,19.552 291.145,19.238 291.145,18.78 C291.145,18.414 291.34,18.07 291.741,17.744 C291.536,17.598 291.434,17.378 291.434,17.082 C291.434,16.967 291.516,16.775 291.682,16.508 L291.754,16.386 C291.379,16.105 291.193,15.683 291.193,15.129 C291.193,14.574 291.351,14.173 291.668,13.923 C291.986,13.674 292.408,13.549 292.932,13.549 C293.168,13.549 293.405,13.578 293.635,13.636 L293.768,13.662 L295.102,13.618 L295.102,14.55 L295.102,14.55 Z M290.532,18.092 C290.249,18.092 290.026,18.071 289.856,18.031 C289.688,17.99 289.518,17.909 289.348,17.788 C288.95,17.99 288.543,18.092 288.129,18.092 C287.275,18.092 286.848,17.616 286.848,16.665 C286.848,16.2 286.965,15.871 287.203,15.677 C287.441,15.486 287.805,15.368 288.295,15.333 L289.182,15.264 L289.182,14.993 C289.182,14.814 289.143,14.691 289.067,14.623 C288.989,14.557 288.864,14.524 288.694,14.524 L287.137,14.59 L287.104,13.781 C287.694,13.612 288.254,13.528 288.788,13.528 C289.322,13.528 289.706,13.645 289.94,13.876 C290.172,14.109 290.29,14.48 290.29,14.99 L290.29,16.801 C290.304,16.944 290.325,17.037 290.358,17.093 C290.391,17.151 290.46,17.191 290.565,17.21 L290.532,18.092 L290.532,18.092 Z M286.135,17.989 L285.026,17.989 L285.026,15.664 C285.026,15.294 284.989,15.018 284.911,14.842 C284.833,14.666 284.679,14.577 284.448,14.577 C284.27,14.577 284.055,14.617 283.8,14.698 L283.677,14.742 C283.7,15.177 283.71,15.508 283.71,15.735 L283.71,17.989 L282.601,17.989 L282.601,15.752 C282.601,15.322 282.566,15.019 282.494,14.842 C282.422,14.665 282.265,14.577 282.023,14.577 C281.806,14.577 281.593,14.617 281.384,14.698 L281.284,14.734 L281.284,17.989 L280.175,17.989 L280.175,13.635 L281.276,13.635 L281.276,13.879 C281.657,13.65 281.983,13.53 282.253,13.53 C282.7,13.53 283.044,13.667 283.288,13.94 C283.794,13.667 284.259,13.53 284.679,13.53 C285.226,13.53 285.605,13.697 285.818,14.03 C286.031,14.364 286.136,14.897 286.136,15.628 L286.136,17.989 L286.135,17.989 Z M278.758,17.563 C278.434,17.916 277.973,18.091 277.375,18.091 C277.121,18.091 276.834,18.067 276.512,18.012 C276.19,17.96 275.93,17.907 275.739,17.847 L275.44,17.772 L275.565,16.88 C276.231,16.991 276.788,17.046 277.237,17.046 C277.507,17.046 277.714,16.97 277.858,16.819 C278.001,16.669 278.073,16.452 278.073,16.171 C278.073,15.89 278.012,15.688 277.891,15.558 C277.768,15.43 277.598,15.369 277.375,15.369 C277.006,15.369 276.682,15.406 276.4,15.482 L276.276,15.514 L275.598,15.349 L275.746,12.244 L279.082,12.244 L279.082,13.288 L276.641,13.288 L276.498,14.533 C276.84,14.391 277.166,14.324 277.477,14.324 C278.657,14.324 279.247,14.902 279.247,16.054 C279.247,16.705 279.085,17.207 278.758,17.563 L278.758,17.563 L278.758,17.563 Z M274.413,17.989 L273.27,17.989 L273.27,15.534 L271.176,15.534 L271.176,17.989 L270.033,17.989 L270.033,12.07 L271.176,12.07 L271.176,14.489 L273.27,14.489 L273.27,12.07 L274.413,12.07 L274.413,17.989 L274.413,17.989 Z M292.874,3.73 L292.874,0 L282.526,7.837 L272.174,0 L272.174,3.729 L267,1.662 L267.676,23.937 L282.526,30.134 L297.372,23.939 L298.048,1.665 L292.874,3.73 L292.874,3.73 Z M292.936,14.454 C292.514,14.454 292.303,14.667 292.303,15.095 C292.303,15.523 292.514,15.736 292.936,15.736 C293.358,15.736 293.569,15.523 293.569,15.095 C293.569,14.667 293.358,14.454 292.936,14.454 L292.936,14.454 Z M287.964,16.665 C287.964,16.983 288.101,17.144 288.37,17.144 C288.579,17.144 288.809,17.108 289.058,17.039 L289.183,17.004 L289.183,16.073 L288.429,16.143 C288.118,16.171 287.964,16.347 287.964,16.665 L287.964,16.665 Z M292.237,18.659 C292.237,18.908 292.528,19.033 293.11,19.033 C293.692,19.033 293.983,18.887 293.983,18.595 C293.983,18.441 293.934,18.339 293.835,18.296 C293.735,18.252 293.526,18.229 293.206,18.221 L292.46,18.159 C292.311,18.319 292.237,18.484 292.237,18.659 L292.237,18.659 Z" id="h5mag-logo" fill="#ACACAC"></path>
                <polygon id="next" fill="#E7E7E7" points="243.5 15 232.413994 4 231 5.4186031 240.624496 15 231 24.5813969 232.409912 26"></polygon>
                <polygon id="previous" fill="#E7E7E7" transform="translate(192.250000, 15.000000) scale(-1, 1) translate(-192.250000, -15.000000) " points="198.5 15 187.413994 4 186 5.4186031 195.624496 15 186 24.5813969 187.409912 26"></polygon>
                <path d="M148,27 C141.372583,27 136,21.627417 136,15 C136,8.372583 141.372583,3 148,3 C154.627417,3 160,8.372583 160,15 C160,21.627417 154.627417,27 148,27 Z M148,25 C153.522847,25 158,20.5228475 158,15 C158,9.4771525 153.522847,5 148,5 C142.477153,5 138,9.4771525 138,15 C138,20.5228475 142.477153,25 148,25 Z M149,14 L149,22 L147,22 L147,15 L145,15 L145,13 L149,13 L149,14 Z M147.5,11 C148.328427,11 149,10.3284271 149,9.5 C149,8.67157288 148.328427,8 147.5,8 C146.671573,8 146,8.67157288 146,9.5 C146,10.3284271 146.671573,11 147.5,11 Z" id="info" fill="#E7E7E7"></path>
                <path d="M111.5,26.5 C112.604569,26.5 113.5,25.6045695 113.5,24.5 C113.5,23.3954305 112.604569,22.5 111.5,22.5 C110.395431,22.5 109.5,23.3954305 109.5,24.5 C109.5,25.6045695 110.395431,26.5 111.5,26.5 Z M99.5,26.5 C100.604569,26.5 101.5,25.6045695 101.5,24.5 C101.5,23.3954305 100.604569,22.5 99.5,22.5 C98.3954305,22.5 97.5,23.3954305 97.5,24.5 C97.5,25.6045695 98.3954305,26.5 99.5,26.5 Z M91.3442301,6 L97.3406038,20 L113.019608,20 L117.039615,8 L99.0113817,8 L99.0113817,10 L114.261223,10.0047839 L111.597656,18 L98.6622765,18 L92.6593962,4 L86,4 L86,6 L91.3442301,6 Z" id="shoppingcart" fill="#E7E7E7"></path>
                <path d="M52,23 L67,23 L67,25 L52,25 L52,23 Z M52,15 L64,15 L64,17 L52,17 L52,15 Z M52,7 L69,7 L69,9 L52,9 L52,7 Z M45,22 L49,22 L49,26 L45,26 L45,22 Z M45,14 L49,14 L49,18 L45,18 L45,14 Z M45,6 L49,6 L49,10 L45,10 L45,6 Z" id="toc" fill="#E7E7E7"></path>
                <path d="M12.4969658,4 L0.0899658203,14.152 L1.35596582,15.7 L2.99696582,14.359 L2.99696582,27 L10.9969658,27 L10.9969658,20 L13.9959658,20 L13.9959658,27 L21.9969658,27 L21.9969658,14.359 L23.6369658,15.7 L24.9039658,14.152 L12.4969658,4 Z M4.99596582,12.724 L12.4969658,6.593 L19.9969658,12.724 L19.9969658,25.001 L15.9969658,25.001 L15.9969658,18 L8.99696582,18 L8.99696582,25.001 L4.99596582,25.001 L4.99596582,12.724 Z" id="home" fill="#E7E7E7"></path>
            </g>
            <g id="Hover" transform="translate(10.000000, 51.000000)">
                <path d="M377.33601,13.3360096 L381.672019,9 L383.086233,10.4142136 L378.750223,14.7502232 L381,17 L375,17 L375,11 L377.33601,13.3360096 Z M367.699747,19.6997475 L370,22 L370,16 L364,16 L366.285534,18.2855339 L362,22.5710678 L363.414214,23.9852814 L367.699747,19.6997475 Z M358,5 L387,5 L387,28 L358,28 L358,5 Z M360,26 L385,26 L385,7 L360,7 L360,26 Z" id="fullscreen-close" fill="#383838"></path>
                <path d="M320.71394,11.2971195 L323.011059,9 L317,9 L317,15.0110593 L319.29712,12.7139398 L323.58318,17 L325,15.5831797 L320.71394,11.2971195 Z M334.331683,21.7175644 L330.017759,17.4036404 L331.425908,15.9954918 L335.735309,20.3048931 L337.980873,18.0448581 L337.980873,24.0191268 L332.044858,24.0191268 L334.331683,21.7175644 Z M313,5 L342,5 L342,28 L313,28 L313,5 Z M315,26 L340,26 L340,7 L315,7 L315,26 Z" id="fullscreen" fill="#383838"></path>
                <g id="H5mag-logo" transform="translate(266.280029, 0.580017)">
                    <g id="h5mag-logo-path">
                        <polygon id="Shape_59_" fill="url(#linearGradient-1)" points="26.539 4.225 26.539 0.519 16.246 8.311 5.951 0.519 5.951 4.225 0.805 2.169 1.48 24.316 16.246 30.478 31.014 24.316 31.69 2.169 26.539 4.225"></polygon>
                        <polygon id="Shape_58_" fill="url(#linearGradient-2)" points="5.623 5.703 0.806 2.17 4.785 9.467 5.623 5.703"></polygon>
                        <polygon id="Shape_57_" fill="url(#linearGradient-3)" points="26.869 5.703 26.539 4.224 25.594 6.635 26.869 5.703"></polygon>
                        <polygon id="Shape_56_" fill="url(#linearGradient-4)" points="11.072 17.284 16.246 13.491 6.898 6.637 11.072 17.284"></polygon>
                        <polygon id="Shape_55_" fill="url(#linearGradient-5)" points="9.627 18.344 16.246 30.482 11.072 17.286 9.627 18.344"></polygon>
                        <polygon id="Shape_54_" fill="url(#linearGradient-6)" points="23.845 16.548 31.012 24.319 27.707 9.467 23.845 16.548"></polygon>
                        <polygon id="Shape_53_" fill="url(#linearGradient-7)" points="19.096 11.401 16.246 8.309 16.246 13.49 19.096 11.401"></polygon>
                        <polygon id="Shape_52_" fill="url(#linearGradient-8)" points="22.865 18.344 31.011 24.319 23.844 16.548 22.865 18.344"></polygon>
                        <polygon id="Shape_51_" fill="url(#linearGradient-9)" points="25.594 6.636 19.096 11.403 22.346 14.924 25.594 6.636"></polygon>
                        <polygon id="Shape_50_" fill="url(#linearGradient-10)" points="6.898 6.636 5.951 4.225 5.623 5.703 6.898 6.636"></polygon>
                        <polygon id="Shape_49_" fill="url(#linearGradient-11)" points="27.707 9.468 31.686 2.17 26.87 5.703 27.707 9.468"></polygon>
                        <polygon id="Shape_48_" fill="url(#linearGradient-12)" points="16.246 30.481 31.012 24.319 22.866 18.344 16.246 30.481"></polygon>
                        <polygon id="Shape_47_" fill="url(#linearGradient-13)" points="4.785 9.467 1.48 24.318 9.626 18.342 4.785 9.467"></polygon>
                        <polygon id="Shape_46_" fill="url(#linearGradient-14)" points="5.623 5.703 4.785 9.467 9.627 18.344 11.072 17.284 6.898 6.637 5.623 5.703"></polygon>
                        <polygon id="Shape_45_" fill="url(#linearGradient-15)" points="25.594 6.636 22.346 14.922 23.845 16.547 27.707 9.467 26.869 5.702 25.594 6.636"></polygon>
                        <polygon id="Shape_44_" fill="url(#linearGradient-16)" points="16.246 13.491 11.072 17.284 16.246 30.479 16.246 13.491"></polygon>
                        <polygon id="Shape_43_" fill="url(#linearGradient-17)" points="19.096 11.401 16.246 13.49 16.246 13.491 21.42 17.284 22.346 14.923 19.096 11.401"></polygon>
                        <polygon id="Shape_42_" fill="url(#linearGradient-18)" points="21.42 17.284 16.246 30.479 22.865 18.342 21.42 17.284"></polygon>
                        <polygon id="Shape_41_" fill="url(#linearGradient-19)" points="21.42 17.284 22.865 18.345 23.844 16.548 22.345 14.923 21.42 17.284"></polygon>
                        <polygon id="Shape_40_" fill="url(#linearGradient-20)" points="16.246 13.491 16.246 30.479 21.42 17.284 16.246 13.491"></polygon>
                    </g>
                    <path d="M28.902,15.062 L28.281,15.009 C28.402,15.207 28.465,15.405 28.465,15.602 C28.465,16.181 28.322,16.582 28.043,16.802 C27.761,17.023 27.318,17.133 26.718,17.133 C26.591,17.133 26.479,17.122 26.379,17.098 C26.32,17.25 26.296,17.373 26.296,17.468 C26.296,17.564 26.342,17.629 26.436,17.665 C26.532,17.699 26.748,17.72 27.098,17.725 C27.794,17.731 28.269,17.829 28.526,18.017 C28.78,18.206 28.907,18.547 28.907,19.044 C28.907,19.541 28.721,19.907 28.36,20.145 C27.995,20.382 27.503,20.501 26.881,20.501 C26.259,20.501 25.78,20.415 25.446,20.241 C25.112,20.067 24.946,19.75 24.946,19.292 C24.946,18.926 25.142,18.582 25.544,18.256 C25.339,18.111 25.235,17.89 25.235,17.594 C25.235,17.479 25.317,17.287 25.483,17.02 L25.556,16.898 C25.181,16.617 24.994,16.198 24.994,15.641 C24.994,15.086 25.152,14.685 25.47,14.435 C25.787,14.186 26.209,14.061 26.733,14.061 C26.969,14.061 27.206,14.09 27.436,14.148 L27.569,14.174 L28.903,14.13 L28.903,15.062 L28.902,15.062 L28.902,15.062 Z M24.332,18.604 C24.05,18.604 23.826,18.583 23.656,18.543 C23.488,18.502 23.318,18.421 23.148,18.3 C22.751,18.502 22.342,18.604 21.928,18.604 C21.074,18.604 20.648,18.128 20.648,17.177 C20.648,16.712 20.763,16.383 21.002,16.189 C21.238,15.998 21.606,15.88 22.095,15.845 L22.983,15.779 L22.983,15.508 C22.983,15.329 22.944,15.206 22.868,15.138 C22.79,15.075 22.665,15.039 22.495,15.039 L20.938,15.105 L20.905,14.296 C21.495,14.127 22.054,14.043 22.59,14.043 C23.122,14.043 23.507,14.16 23.741,14.391 C23.972,14.624 24.092,14.995 24.092,15.505 L24.092,17.317 C24.105,17.457 24.126,17.55 24.159,17.609 C24.192,17.664 24.261,17.704 24.366,17.723 L24.332,18.604 L24.332,18.604 L24.332,18.604 Z M21.766,17.177 C21.766,17.495 21.901,17.656 22.171,17.656 C22.38,17.656 22.609,17.62 22.858,17.551 L22.983,17.517 L22.983,16.585 L22.229,16.655 C21.919,16.684 21.766,16.859 21.766,17.177 L21.766,17.177 L21.766,17.177 Z M19.936,18.501 L18.827,18.501 L18.827,16.176 C18.827,15.806 18.79,15.531 18.714,15.354 C18.636,15.177 18.484,15.089 18.249,15.089 C18.071,15.089 17.856,15.129 17.604,15.21 L17.481,15.254 C17.502,15.689 17.512,16.02 17.512,16.247 L17.512,18.501 L16.4,18.501 L16.4,16.264 C16.4,15.834 16.365,15.534 16.296,15.354 C16.223,15.177 16.067,15.089 15.822,15.089 C15.605,15.089 15.393,15.129 15.183,15.21 L15.084,15.246 L15.084,18.501 L13.974,18.501 L13.974,14.147 L15.076,14.147 L15.076,14.391 C15.46,14.162 15.783,14.042 16.055,14.042 C16.503,14.042 16.847,14.179 17.091,14.452 C17.597,14.179 18.061,14.042 18.483,14.042 C19.03,14.042 19.409,14.209 19.622,14.542 C19.835,14.876 19.94,15.409 19.94,16.14 L19.94,18.5 L19.936,18.501 L19.936,18.501 L19.936,18.501 Z M12.56,18.075 C12.235,18.428 11.774,18.603 11.177,18.603 C10.923,18.603 10.635,18.579 10.313,18.527 C9.991,18.472 9.731,18.419 9.54,18.362 L9.241,18.284 L9.366,17.392 C10.032,17.503 10.592,17.558 11.038,17.558 C11.309,17.558 11.517,17.485 11.659,17.331 C11.804,17.181 11.874,16.964 11.874,16.683 C11.874,16.405 11.813,16.2 11.692,16.073 C11.569,15.945 11.399,15.881 11.177,15.881 C10.808,15.881 10.483,15.918 10.201,15.994 L10.076,16.029 L9.398,15.864 L9.544,12.756 L12.88,12.756 L12.88,13.8 L10.441,13.8 L10.299,15.045 C10.641,14.906 10.966,14.836 11.277,14.836 C12.46,14.836 13.048,15.414 13.048,16.569 C13.048,17.218 12.885,17.719 12.56,18.075 L12.56,18.075 L12.56,18.075 L12.56,18.075 Z M8.214,18.501 L7.07,18.501 L7.07,16.046 L4.976,16.046 L4.976,18.501 L3.834,18.501 L3.834,12.582 L4.976,12.582 L4.976,15.001 L7.07,15.001 L7.07,12.582 L8.216,12.582 L8.214,18.501 L8.214,18.501 L8.214,18.501 Z M26.736,14.967 C26.314,14.967 26.103,15.181 26.103,15.608 C26.103,16.036 26.314,16.249 26.736,16.249 C27.158,16.249 27.369,16.036 27.369,15.608 C27.369,15.18 27.158,14.967 26.736,14.967 L26.736,14.967 L26.736,14.967 Z M26.037,19.171 C26.037,19.42 26.328,19.545 26.91,19.545 C27.492,19.545 27.783,19.4 27.783,19.109 C27.783,18.953 27.732,18.851 27.635,18.808 C27.535,18.764 27.326,18.741 27.006,18.735 L26.26,18.673 C26.111,18.831 26.037,18.996 26.037,19.171 L26.037,19.171 L26.037,19.171 Z" id="h5mag-logo-text-path" fill="#FFFFFF"></path>
                </g>
                <polygon id="next" fill="#383838" points="243.5 16 232.413994 5 231 6.4186031 240.624496 16 231 25.5813969 232.409912 27"></polygon>
                <polygon id="previous" fill="#383838" transform="translate(192.250000, 16.000000) scale(-1, 1) translate(-192.250000, -16.000000) " points="198.5 16 187.413994 5 186 6.4186031 195.624496 16 186 25.5813969 187.409912 27"></polygon>
                <path d="M148,28 C141.372583,28 136,22.627417 136,16 C136,9.372583 141.372583,4 148,4 C154.627417,4 160,9.372583 160,16 C160,22.627417 154.627417,28 148,28 Z M148,26 C153.522847,26 158,21.5228475 158,16 C158,10.4771525 153.522847,6 148,6 C142.477153,6 138,10.4771525 138,16 C138,21.5228475 142.477153,26 148,26 Z M149,15 L149,23 L147,23 L147,16 L145,16 L145,14 L149,14 L149,15 Z M147.5,12 C148.328427,12 149,11.3284271 149,10.5 C149,9.67157288 148.328427,9 147.5,9 C146.671573,9 146,9.67157288 146,10.5 C146,11.3284271 146.671573,12 147.5,12 Z" id="info" fill="#383838"></path>
                <path d="M111.5,27.5 C112.604569,27.5 113.5,26.6045695 113.5,25.5 C113.5,24.3954305 112.604569,23.5 111.5,23.5 C110.395431,23.5 109.5,24.3954305 109.5,25.5 C109.5,26.6045695 110.395431,27.5 111.5,27.5 Z M99.5,27.5 C100.604569,27.5 101.5,26.6045695 101.5,25.5 C101.5,24.3954305 100.604569,23.5 99.5,23.5 C98.3954305,23.5 97.5,24.3954305 97.5,25.5 C97.5,26.6045695 98.3954305,27.5 99.5,27.5 Z M91.3442301,7 L97.3406038,21 L113.019608,21 L117.039615,9 L99.0113817,9 L99.0113817,11 L114.261223,11.0047839 L111.597656,19 L98.6622765,19 L92.6593962,5 L86,5 L86,7 L91.3442301,7 Z" id="shoppingcart" fill="#383838"></path>
                <path d="M52,24 L67,24 L67,26 L52,26 L52,24 Z M52,16 L64,16 L64,18 L52,18 L52,16 Z M52,8 L69,8 L69,10 L52,10 L52,8 Z M45,23 L49,23 L49,27 L45,27 L45,23 Z M45,15 L49,15 L49,19 L45,19 L45,15 Z M45,7 L49,7 L49,11 L45,11 L45,7 Z" id="toc" fill="#383838"></path>
                <path d="M12.4969658,5 L0.0899658203,15.152 L1.35596582,16.7 L2.99696582,15.359 L2.99696582,28 L10.9969658,28 L10.9969658,21 L13.9959658,21 L13.9959658,28 L21.9969658,28 L21.9969658,15.359 L23.6369658,16.7 L24.9039658,15.152 L12.4969658,5 Z M4.99596582,13.724 L12.4969658,7.593 L19.9969658,13.724 L19.9969658,26.001 L15.9969658,26.001 L15.9969658,19 L8.99696582,19 L8.99696582,26.001 L4.99596582,26.001 L4.99596582,13.724 Z" id="home" fill="#383838"></path>
            </g>
            <g id="Normal" transform="translate(10.000000, 7.000000)">
                <path d="M377.33601,12.3360096 L381.672019,8 L383.086233,9.41421356 L378.750223,13.7502232 L381,16 L375,16 L375,10 L377.33601,12.3360096 Z M367.699747,18.6997475 L370,21 L370,15 L364,15 L366.285534,17.2855339 L362,21.5710678 L363.414214,22.9852814 L367.699747,18.6997475 Z M358,4 L387,4 L387,27 L358,27 L358,4 Z M360,25 L385,25 L385,6 L360,6 L360,25 Z" id="fullscreen-close" fill="#888888"></path>
                <path d="M320.71394,10.2971195 L323.011059,8 L317,8 L317,14.0110593 L319.29712,11.7139398 L323.58318,16 L325,14.5831797 L320.71394,10.2971195 Z M334.331683,20.7175644 L330.017759,16.4036404 L331.425908,14.9954918 L335.735309,19.3048931 L337.980873,17.0448581 L337.980873,23.0191268 L332.044858,23.0191268 L334.331683,20.7175644 Z M313,4 L342,4 L342,27 L313,27 L313,4 Z M315,25 L340,25 L340,6 L315,6 L315,25 Z" id="fullscreen" fill="#888888"></path>
                <path d="M295.102,14.55 L294.481,14.497 C294.602,14.695 294.663,14.892 294.663,15.09 C294.663,15.669 294.522,16.07 294.241,16.29 C293.958,16.511 293.518,16.621 292.915,16.621 C292.788,16.621 292.675,16.61 292.577,16.586 C292.52,16.738 292.493,16.861 292.493,16.956 C292.493,17.052 292.54,17.117 292.634,17.153 C292.728,17.187 292.948,17.208 293.296,17.213 C293.991,17.219 294.466,17.317 294.722,17.505 C294.976,17.694 295.103,18.035 295.103,18.532 C295.103,19.029 294.919,19.395 294.556,19.633 C294.191,19.87 293.699,19.989 293.077,19.989 C292.455,19.989 291.979,19.903 291.645,19.729 C291.311,19.552 291.145,19.238 291.145,18.78 C291.145,18.414 291.34,18.07 291.741,17.744 C291.536,17.598 291.434,17.378 291.434,17.082 C291.434,16.967 291.516,16.775 291.682,16.508 L291.754,16.386 C291.379,16.105 291.193,15.683 291.193,15.129 C291.193,14.574 291.351,14.173 291.668,13.923 C291.986,13.674 292.408,13.549 292.932,13.549 C293.168,13.549 293.405,13.578 293.635,13.636 L293.768,13.662 L295.102,13.618 L295.102,14.55 L295.102,14.55 Z M290.532,18.092 C290.249,18.092 290.026,18.071 289.856,18.031 C289.688,17.99 289.518,17.909 289.348,17.788 C288.95,17.99 288.543,18.092 288.129,18.092 C287.275,18.092 286.848,17.616 286.848,16.665 C286.848,16.2 286.965,15.871 287.203,15.677 C287.441,15.486 287.805,15.368 288.295,15.333 L289.182,15.264 L289.182,14.993 C289.182,14.814 289.143,14.691 289.067,14.623 C288.989,14.557 288.864,14.524 288.694,14.524 L287.137,14.59 L287.104,13.781 C287.694,13.612 288.254,13.528 288.788,13.528 C289.322,13.528 289.706,13.645 289.94,13.876 C290.172,14.109 290.29,14.48 290.29,14.99 L290.29,16.801 C290.304,16.944 290.325,17.037 290.358,17.093 C290.391,17.151 290.46,17.191 290.565,17.21 L290.532,18.092 L290.532,18.092 Z M286.135,17.989 L285.026,17.989 L285.026,15.664 C285.026,15.294 284.989,15.018 284.911,14.842 C284.833,14.666 284.679,14.577 284.448,14.577 C284.27,14.577 284.055,14.617 283.8,14.698 L283.677,14.742 C283.7,15.177 283.71,15.508 283.71,15.735 L283.71,17.989 L282.601,17.989 L282.601,15.752 C282.601,15.322 282.566,15.019 282.494,14.842 C282.422,14.665 282.265,14.577 282.023,14.577 C281.806,14.577 281.593,14.617 281.384,14.698 L281.284,14.734 L281.284,17.989 L280.175,17.989 L280.175,13.635 L281.276,13.635 L281.276,13.879 C281.657,13.65 281.983,13.53 282.253,13.53 C282.7,13.53 283.044,13.667 283.288,13.94 C283.794,13.667 284.259,13.53 284.679,13.53 C285.226,13.53 285.605,13.697 285.818,14.03 C286.031,14.364 286.136,14.897 286.136,15.628 L286.136,17.989 L286.135,17.989 Z M278.758,17.563 C278.434,17.916 277.973,18.091 277.375,18.091 C277.121,18.091 276.834,18.067 276.512,18.012 C276.19,17.96 275.93,17.907 275.739,17.847 L275.44,17.772 L275.565,16.88 C276.231,16.991 276.788,17.046 277.237,17.046 C277.507,17.046 277.714,16.97 277.858,16.819 C278.001,16.669 278.073,16.452 278.073,16.171 C278.073,15.89 278.012,15.688 277.891,15.558 C277.768,15.43 277.598,15.369 277.375,15.369 C277.006,15.369 276.682,15.406 276.4,15.482 L276.276,15.514 L275.598,15.349 L275.746,12.244 L279.082,12.244 L279.082,13.288 L276.641,13.288 L276.498,14.533 C276.84,14.391 277.166,14.324 277.477,14.324 C278.657,14.324 279.247,14.902 279.247,16.054 C279.247,16.705 279.085,17.207 278.758,17.563 L278.758,17.563 L278.758,17.563 Z M274.413,17.989 L273.27,17.989 L273.27,15.534 L271.176,15.534 L271.176,17.989 L270.033,17.989 L270.033,12.07 L271.176,12.07 L271.176,14.489 L273.27,14.489 L273.27,12.07 L274.413,12.07 L274.413,17.989 L274.413,17.989 Z M292.874,3.73 L292.874,0 L282.526,7.837 L272.174,0 L272.174,3.729 L267,1.662 L267.676,23.937 L282.526,30.134 L297.372,23.939 L298.048,1.665 L292.874,3.73 L292.874,3.73 Z M292.936,14.454 C292.514,14.454 292.303,14.667 292.303,15.095 C292.303,15.523 292.514,15.736 292.936,15.736 C293.358,15.736 293.569,15.523 293.569,15.095 C293.569,14.667 293.358,14.454 292.936,14.454 L292.936,14.454 Z M287.964,16.665 C287.964,16.983 288.101,17.144 288.37,17.144 C288.579,17.144 288.809,17.108 289.058,17.039 L289.183,17.004 L289.183,16.073 L288.429,16.143 C288.118,16.171 287.964,16.347 287.964,16.665 L287.964,16.665 Z M292.237,18.659 C292.237,18.908 292.528,19.033 293.11,19.033 C293.692,19.033 293.983,18.887 293.983,18.595 C293.983,18.441 293.934,18.339 293.835,18.296 C293.735,18.252 293.526,18.229 293.206,18.221 L292.46,18.159 C292.311,18.319 292.237,18.484 292.237,18.659 L292.237,18.659 Z" id="h5mag-logo" fill="#ACACAC"></path>
                <polygon id="next" fill="#888888" points="243.5 15 232.413994 4 231 5.4186031 240.624496 15 231 24.5813969 232.409912 26"></polygon>
                <polygon id="previous" fill="#888888" transform="translate(192.250000, 15.000000) scale(-1, 1) translate(-192.250000, -15.000000) " points="198.5 15 187.413994 4 186 5.4186031 195.624496 15 186 24.5813969 187.409912 26"></polygon>
                <path d="M148,27 C141.372583,27 136,21.627417 136,15 C136,8.372583 141.372583,3 148,3 C154.627417,3 160,8.372583 160,15 C160,21.627417 154.627417,27 148,27 Z M148,25 C153.522847,25 158,20.5228475 158,15 C158,9.4771525 153.522847,5 148,5 C142.477153,5 138,9.4771525 138,15 C138,20.5228475 142.477153,25 148,25 Z M149,14 L149,22 L147,22 L147,15 L145,15 L145,13 L149,13 L149,14 Z M147.5,11 C148.328427,11 149,10.3284271 149,9.5 C149,8.67157288 148.328427,8 147.5,8 C146.671573,8 146,8.67157288 146,9.5 C146,10.3284271 146.671573,11 147.5,11 Z" id="info" fill="#888888"></path>
                <path d="M111.5,26.5 C112.604569,26.5 113.5,25.6045695 113.5,24.5 C113.5,23.3954305 112.604569,22.5 111.5,22.5 C110.395431,22.5 109.5,23.3954305 109.5,24.5 C109.5,25.6045695 110.395431,26.5 111.5,26.5 Z M99.5,26.5 C100.604569,26.5 101.5,25.6045695 101.5,24.5 C101.5,23.3954305 100.604569,22.5 99.5,22.5 C98.3954305,22.5 97.5,23.3954305 97.5,24.5 C97.5,25.6045695 98.3954305,26.5 99.5,26.5 Z M91.3442301,6 L97.3406038,20 L113.019608,20 L117.039615,8 L99.0113817,8 L99.0113817,10 L114.261223,10.0047839 L111.597656,18 L98.6622765,18 L92.6593962,4 L86,4 L86,6 L91.3442301,6 Z" id="shoppingcart" fill="#888888"></path>
                <path d="M52,23 L67,23 L67,25 L52,25 L52,23 Z M52,15 L64,15 L64,17 L52,17 L52,15 Z M52,7 L69,7 L69,9 L52,9 L52,7 Z M45,22 L49,22 L49,26 L45,26 L45,22 Z M45,14 L49,14 L49,18 L45,18 L45,14 Z M45,6 L49,6 L49,10 L45,10 L45,6 Z" id="toc" fill="#888888"></path>
                <path d="M12.4969658,4 L0.0899658203,14.152 L1.35596582,15.7 L2.99696582,14.359 L2.99696582,27 L10.9969658,27 L10.9969658,20 L13.9959658,20 L13.9959658,27 L21.9969658,27 L21.9969658,14.359 L23.6369658,15.7 L24.9039658,14.152 L12.4969658,4 Z M4.99596582,12.724 L12.4969658,6.593 L19.9969658,12.724 L19.9969658,25.001 L15.9969658,25.001 L15.9969658,18 L8.99696582,18 L8.99696582,25.001 L4.99596582,25.001 L4.99596582,12.724 Z" id="home" fill="#888888"></path>
            </g>
        </g>
    </g>
</svg>